<svg xmlns="http://www.w3.org/2000/svg" height="800" width="1200" version="1.0" viewBox="-19.218945 -6.589375 166.56419 39.53625"><path d="M41.2381 6.8645c-5.0997 0-8.8484 3.7221-8.8484 8.7924 0 5.0673 3.7477 8.7904 8.8484 8.7904 5.1008 0 8.8504-3.723 8.8504-8.7904-.001-5.0703-3.7496-8.7924-8.8504-8.7924m1.1821 15.5223c-2.5852.4618-4.5819-1.9731-5.306-6.0283-.7164-4.0022.3576-7.0424 2.8888-7.4934 2.5852-.4618 4.5917 2.0261 5.307 6.0283.7262 4.0542-.3045 7.0316-2.8898 7.4934M119.278 6.8645c-5.1008 0-8.8504 3.7221-8.8504 8.7924 0 5.0673 3.7486 8.7904 8.8503 8.7904 5.0988 0 8.8484-3.723 8.8484-8.7904 0-5.0703-3.7486-8.7924-8.8484-8.7924m1.1811 15.5223c-2.5842.4618-4.58-1.9731-5.305-6.0283-.7164-4.0022.3576-7.0424 2.8878-7.4934 2.5862-.4618 4.5927 2.0261 5.308 6.0283.7242 4.0542-.3046 7.0316-2.8908 7.4934M92.3456 11.2794c.1975.5443.285 1.2233.285 2.0497v10.7694h6.4478v-1.186c-.9207 0-2.086-.451-2.086-2.5587v-8.0682c0-4.4159-3.6102-5.4349-5.539-5.4349-3.1011 0-4.7814 1.8365-5.3434 2.9833 0 0-.06-2.1844-.06-2.5912h-6.207v1.1674c.898 0 2.087.449 2.087 2.536v9.4194c0 2.086-1.1919 2.5469-2.087 2.5469v1.186h8.535v-1.186c-.9208 0-2.0871-.451-2.0871-2.5587v-6.0981c0-1.1988.1827-2.1647.5718-2.9046.6603-1.2528 1.8601-1.8591 2.8663-1.8591 1.2125 0 2.1627.5424 2.6167 1.7874m16.1442 12.8191v-1.186c-.9217 0-2.0871-.451-2.0871-2.5587 0-.4206.003-11.3217.003-11.3217h2.4319V7.2634h-2.432v-3.837h-2.2727c0 2.5518-2.3956 4.408-4.3314 4.408v1.181l2.2404.0089v11.4061c0 2.6206.9963 3.668 3.8567 3.668h2.5912M63.5001 2.3976V20.166c0 2.1087 1.1674 2.5587 2.0861 2.5587v1.3737h-8.755v-1.3737c.898 0 2.087-.449 2.087-2.5617V2.3927c-.4736.001-1.2076 0-2.1372 0-2.542 0-3.4764.6544-3.4764 2.5764h-1.5044L51.8012 0h18.6273l-.003 4.968H68.993c0-1.9504-.904-2.5724-3.446-2.5724-.7497 0-2.0468.002-2.0468.002M6.668 2.3907V20.169c0 2.1067 1.1673 2.5578 2.087 2.5578v1.3727H0v-1.3727c.899 0 2.087-.449 2.087-2.5627V3.9314C2.087 1.8247.9198 1.3737 0 1.3737V0h10.8912c6.6513 0 8.2127 3.5168 8.2127 6.2661 0 3.1208-2.2364 5.2059-5.3543 5.7807 3.3085.2103 5.2403 8.6499 7.6516 11.747.3233.4167 1.1654 1.1723 2.0773 1.1723.0186.001.0854.001.1041.001v1.3904h-2.5842c-1.8994 0-3.8244-.8372-4.6773-1.9937-2.8348-3.848-3.9255-11.7736-7.3794-12.0242-.056-.004-.2505-.0059-.3075-.0059v-1.4395c.053 0 .2456-.001.2967-.002 4.293-.06 5.0673-2.3504 5.0673-4.2665 0-2.2158-.7939-4.241-4.7106-4.241-.622 0-2.6196.006-2.6196.006m69.7505 1.2047c0 1.1113-1.0563 2.0114-2.3602 2.0114-1.303 0-2.3613-.9001-2.3613-2.0114 0-1.1104 1.0583-2.0114 2.3613-2.0114 1.3039 0 2.3602.901 2.3602 2.0114m2.1205 20.5031v-1.186c-.9207 0-2.0861-.451-2.0861-2.5587V7.2428H70.004v1.1674c.8991 0 2.087.449 2.087 2.536v9.4036c0 2.1136-1.1889 2.5627-2.087 2.5627v1.186h8.535m-54.4385 0V10.9463c0-2.0871-1.188-2.5361-2.0871-2.5361V7.2428h6.4479v13.111c0 2.1086 1.1673 2.5587 2.087 2.5587v1.186h-6.4478m4.407-20.5031c0 1.1113-1.0573 2.0114-2.3613 2.0114-1.3029 0-2.3602-.9001-2.3602-2.0114 0-1.1104 1.0573-2.0114 2.3602-2.0114 1.304 0 2.3613.901 2.3613 2.0114" fill="#ee333e"/></svg>