<svg class="brand-logo" width="108" height="40" viewBox="0 0 108 40" fill="none" xmlns="http://www.w3.org/2000/svg">
  <g clip-path="url(#clip0_745_20348)">
    <path d="M46.8803 7.33744V27.6925H39.9233V7.33744H31.6224V1.18359H55.1021V7.33744H46.8803Z"></path>
    <path d="M2.45074 37.0022L1.42301 38.8168H0L1.73923 36.0554L0.158112 33.5308H1.50207L2.45074 35.2665L3.39941 33.5308H4.74336L3.16224 36.0554L4.90148 38.8168H3.47847L2.45074 37.0022Z"></path>
    <path d="M7.35223 36.1335L8.22184 33.6089H9.48674L7.90562 37.7903C7.74751 38.1848 7.5894 38.5004 7.35223 38.6582C7.11506 38.816 6.79883 38.9738 6.40355 38.9738C6.24544 38.9738 6.16639 38.9738 6.00827 38.9738C5.85016 38.9738 5.77111 38.9738 5.61299 38.8949V37.8692C5.69205 37.8692 5.77111 37.9481 5.85016 37.9481C5.92922 37.9481 6.00827 37.9481 6.08733 37.9481C6.24544 37.9481 6.40355 37.8692 6.48261 37.7903C6.56167 37.7115 6.64072 37.5537 6.71978 37.3959L4.90149 33.6089H6.24544L7.35223 36.1335Z"></path>
    <path d="M14.1509 37.7906H14.8624L14.7834 39.9997H13.7556V38.8163H10.4353V39.9997H9.40755L9.32849 37.7906H9.80283C10.04 37.3961 10.1981 37.0017 10.3562 36.4494C10.5143 35.976 10.5143 35.4238 10.5143 34.7137V33.5303H14.0719L14.1509 37.7906ZM12.9651 34.5559H11.7002V35.1871C11.7002 35.8182 11.6211 36.2916 11.5421 36.6861C11.463 37.0806 11.3049 37.475 11.1468 37.7906H13.0441L12.9651 34.5559Z"></path>
    <path d="M16.6808 33.5303H17.8667L19.685 38.7374H18.4991L18.1829 37.7906H16.3646L16.0484 38.7374H14.8625L16.6808 33.5303ZM16.6018 36.9228H17.8667L17.2342 34.9504L16.6018 36.9228Z"></path>
    <path d="M19.6849 38.8163V37.7906C19.764 37.7906 19.843 37.7906 19.9221 37.7906C20.1593 37.7906 20.3964 37.7117 20.5546 37.475C20.7127 37.2384 20.7917 36.765 20.7917 36.0549L20.8708 33.5303H24.4283V38.7374H23.3215V34.477H21.8985L21.8195 36.2916C21.8195 37.2384 21.5823 37.8695 21.2661 38.264C21.0289 38.5796 20.5546 38.7374 20.0802 38.7374C20.0012 38.8163 19.843 38.8163 19.6849 38.8163Z"></path>
    <path d="M29.7251 37.7906H30.4366L30.3575 39.9997H29.3298V38.8163H26.0094V39.9997H25.0607L24.9817 37.7906H25.456C25.6932 37.3961 25.8513 37.0017 26.0094 36.4494C26.1675 35.976 26.1675 35.4238 26.1675 34.7137V33.5303H29.7251V37.7906ZM28.6183 34.5559H27.2743V35.1871C27.2743 35.8182 27.1953 36.2916 27.1162 36.6861C27.0371 37.0806 26.879 37.475 26.7209 37.7906H28.6183V34.5559Z"></path>
    <path d="M32.2549 33.5303H33.4407L35.259 38.7374H34.0731L33.7569 37.7906H32.0177L31.7015 38.7374H30.5156L32.2549 33.5303ZM32.2549 36.9228H33.5198L32.8873 34.9504L32.2549 36.9228Z"></path>
    <path d="M36.9983 33.5303H38.1841L40.0024 38.7374H38.8166L38.5003 37.7906H36.7611L36.4449 38.7374H35.259L36.9983 33.5303ZM36.9192 36.9228H38.1841L37.5517 34.9504L36.9192 36.9228Z"></path>
    <path d="M45.0619 37.0017L44.0342 38.8163H42.6112L44.2714 36.0549L42.7693 33.5303H44.1133L45.0619 35.266L46.0106 33.5303H47.3546L45.7734 36.0549L47.5127 38.8163H46.0897L45.0619 37.0017Z"></path>
    <path d="M50.2796 38.9743C49.489 38.9743 48.8566 38.7377 48.4613 38.1854C48.066 37.712 47.8289 37.002 47.8289 36.213C47.8289 35.424 48.066 34.714 48.4613 34.2406C48.8566 33.7672 49.489 33.4517 50.2796 33.4517C51.0702 33.4517 51.7026 33.6883 52.0979 34.2406C52.4932 34.714 52.7303 35.424 52.7303 36.213C52.7303 37.0809 52.4932 37.712 52.0979 38.1854C51.7026 38.6588 51.0702 38.9743 50.2796 38.9743ZM51.4654 35.6607C51.3864 35.3452 51.3073 35.1085 51.2283 34.8718C50.9911 34.5562 50.7539 34.3984 50.2796 34.3984C49.8843 34.3984 49.5681 34.5562 49.3309 34.8718C49.1728 35.1085 49.0938 35.3452 49.0147 35.6607H51.4654ZM49.0938 36.6075C49.1728 37.002 49.2519 37.2386 49.3309 37.4753C49.5681 37.7909 49.8053 37.9487 50.2796 37.9487C50.6749 37.9487 50.9911 37.7909 51.2283 37.4753C51.3864 37.2386 51.4654 37.002 51.5445 36.6864L49.0938 36.6075Z"></path>
    <path d="M54.7068 34.5559V38.8163H53.521V33.5303H56.8414V34.5559H54.7068Z"></path>
    <path d="M59.7664 38.8163V36.4494L58.2643 38.8163H56.8413L58.8177 35.976L56.9204 33.5303H58.2643L59.7664 35.6605V33.5303H60.8732V35.6605H60.9522L62.3752 33.5303H63.7982L61.9009 35.976L63.7982 38.8163H62.4543L60.9522 36.4494H60.8732V38.8163H59.7664Z"></path>
    <path d="M63.8772 38.8163V37.7906C63.9563 37.7906 64.0353 37.7906 64.1144 37.7906C64.3515 37.7906 64.5887 37.7117 64.7468 37.475C64.9049 37.2384 64.984 36.765 64.984 36.0549V33.5303H68.6206V38.7374H67.5138V34.477H66.1698L66.0908 36.2916C66.0908 37.2384 65.8536 37.8695 65.5374 38.264C65.2212 38.5796 64.8259 38.7374 64.3515 38.7374C64.1934 38.8163 64.0353 38.8163 63.8772 38.8163Z"></path>
    <path d="M70.8342 36.9228L72.8106 33.5303H73.9174V38.8163H72.8106V35.3449L70.8342 38.8163H69.7274V33.5303H70.8342V36.9228Z"></path>
    <path d="M76.131 36.9234L78.1074 33.5309H79.2141V38.738H78.1074V35.3455L76.131 38.738H75.0242V33.5309H76.131V36.9234ZM75.7357 32.2686H76.5262C76.5262 32.4263 76.6053 32.5841 76.6844 32.663C76.7634 32.7419 76.9215 32.8208 77.0796 32.8208C77.2377 32.8208 77.3959 32.7419 77.554 32.663C77.633 32.5841 77.7121 32.4263 77.7121 32.2686H78.5026C78.5026 32.5841 78.3445 32.8997 78.1074 33.0575C77.8702 33.2153 77.554 33.2942 77.1587 33.2942C76.7634 33.2942 76.4472 33.2153 76.21 33.0575C75.8938 32.8208 75.7357 32.5841 75.7357 32.2686Z"></path>
    <path d="M81.4276 36.5283V38.8163H80.3208V33.5303H81.4276V35.5027H83.2459V33.5303H84.3527V38.8163H83.2459V36.5283H81.4276Z"></path>
    <path d="M89.2543 34.5556V35.5024H90.4401C91.0726 35.5024 91.5469 35.6602 91.8631 35.9757C92.1794 36.2913 92.3375 36.6858 92.3375 37.2381C92.3375 37.7903 92.1794 38.1848 91.8631 38.4215C91.5469 38.6582 91.0726 38.816 90.5192 38.816H88.2266V33.6089H92.0212V34.6345L89.2543 34.5556ZM89.2543 36.528V37.7903H90.203C90.5192 37.7903 90.6773 37.7115 90.8354 37.6326C90.9935 37.5537 91.0726 37.3959 91.0726 37.1592C91.0726 36.9225 90.9935 36.7647 90.8354 36.6858C90.6773 36.6069 90.5192 36.528 90.203 36.528H89.2543Z"></path>
    <path d="M94.3929 33.5303H95.5788L97.397 38.7374H96.2112L95.895 37.7906H94.1558L93.8395 38.7374H92.6537L94.3929 33.5303ZM94.3139 36.9228H95.5788L94.9463 34.9504L94.3139 36.9228Z"></path>
    <path d="M98.9781 36.5283V38.8163H97.7922V33.5303H98.9781V35.5027H100.717V33.5303H101.903V38.8163H100.717V36.5283H98.9781Z"></path>
    <path d="M104.117 35.7393L105.777 33.5303H107.121L105.145 35.976L107.2 38.8163H105.856L104.117 36.2127V38.8163H102.931V33.5303H104.117V35.7393Z"></path>
    <path d="M58.0271 27.6925V1.18359H71.3085C73.7593 1.18359 75.8147 1.49918 77.3168 2.20923C78.8189 2.91929 80.0047 3.94494 80.7162 5.52285C81.4277 7.02186 81.823 8.99424 81.823 11.5189V17.0416C81.823 19.5662 81.5068 21.5386 80.9534 23.1165C80.3209 24.6944 79.3722 25.799 77.9492 26.5879C76.5262 27.3769 74.6289 27.6925 72.2572 27.6925H58.0271ZM65.0631 7.33744V21.5386H71.1504C73.5221 21.5386 74.6289 20.0396 74.6289 17.0416V11.5189C74.6289 10.4144 74.4708 9.54651 74.2336 8.91535C73.9964 8.28419 73.6012 7.88971 73.1268 7.65302C72.6525 7.41634 71.941 7.33744 71.0714 7.33744H65.0631Z"></path>
    <path d="M84.8273 27.6925V1.18359H98.583C100.48 1.18359 101.982 1.34138 103.168 1.73586C104.354 2.05144 105.224 2.7615 105.856 3.70825C106.489 4.73389 106.805 6.15401 106.805 7.9686C106.805 9.23093 106.726 10.2566 106.489 11.0455C106.251 11.8345 105.856 12.5445 105.224 13.0179C104.591 13.5702 103.801 13.8858 102.615 14.0436V14.3591C103.88 14.438 104.828 14.7536 105.461 15.227C106.093 15.7004 106.568 16.4104 106.805 17.1994C107.042 17.9883 107.121 19.014 107.121 20.2763C107.121 22.4065 106.805 23.9844 106.172 25.01C105.54 26.1146 104.67 26.8246 103.405 27.1402C102.22 27.4558 100.559 27.6925 98.504 27.6925H84.8273ZM91.7842 6.94296V11.7556H96.7647C97.6344 11.7556 98.2668 11.6767 98.6621 11.5189C99.0574 11.3611 99.3736 11.1244 99.5317 10.8088C99.6898 10.4144 99.7689 9.94099 99.7689 9.15204C99.7689 8.28419 99.6108 7.73192 99.3736 7.41634C99.0574 7.10075 98.504 6.94296 97.6344 6.94296H91.7842ZM91.7842 16.6471V21.8542H97.081C97.8715 21.8542 98.504 21.7753 98.9783 21.6175C99.4526 21.4597 99.7689 21.223 100.006 20.8286C100.243 20.4341 100.322 19.8818 100.322 19.1718C100.322 18.1461 100.085 17.4361 99.6898 17.1205C99.2945 16.8049 98.4249 16.6471 97.2391 16.6471H91.7842Z"></path>
    <path d="M22.61 23.1955C21.5032 23.59 20.3174 23.7478 19.1315 23.6689C19.0525 23.8267 18.8944 23.9845 18.7363 24.0633C16.2855 26.5091 12.4118 26.5091 9.96103 24.0633C7.51029 21.6176 7.51029 17.7517 9.96103 15.3059L11.7003 17.0416V11.6768H6.32445L8.06368 13.4125C4.58522 16.8839 4.58522 22.5643 8.06368 26.0357C11.5422 29.5071 17.2342 29.5071 20.7127 26.0357C21.5823 25.1679 22.2147 24.2211 22.61 23.1955Z"></path>
    <path d="M5.45487 22.5642C5.05959 21.4596 4.90148 20.2762 4.98053 19.0928C4.82242 19.0139 4.66431 18.8561 4.58525 18.6983C2.13451 16.2525 2.13451 12.3866 4.58525 9.94089C7.03599 7.49513 10.9097 7.49513 13.3605 9.94089L11.6212 11.6766H16.9971V6.3117L15.2578 8.0474C11.7794 4.576 6.08732 4.576 2.60885 8.0474C-0.869617 11.5188 -0.869617 17.1993 2.60885 20.6707C3.47847 21.5385 4.5062 22.1697 5.45487 22.5642Z"></path>
    <path d="M6.16638 5.44379C7.27317 5.04931 8.45901 4.89152 9.64485 4.97041C9.80296 4.81262 9.88202 4.65483 10.0401 4.57594C12.4909 2.13018 16.3646 2.13018 18.8154 4.57594C21.2661 7.0217 21.2661 10.8876 18.8154 13.3333L17.0761 11.5976V16.9625H22.4519L20.7127 15.2268C24.1912 11.7554 24.1912 6.07495 20.7127 2.60355C17.2342 -0.86785 11.5422 -0.86785 8.06373 2.60355C7.19411 3.4714 6.56166 4.41815 6.16638 5.44379Z"></path>
    <path d="M23.2424 6.07471C23.6377 7.17924 23.7958 8.36268 23.7167 9.54611C23.8748 9.625 24.0329 9.78279 24.112 9.94058C26.5627 12.3863 26.5627 16.2522 24.112 18.698C21.6613 21.1437 17.7875 21.1437 15.3368 18.698L17.076 16.9623H11.7002V22.3272L13.4394 20.5915C16.9179 24.0629 22.6099 24.0629 26.0884 20.5915C29.5669 17.1201 29.5669 11.4396 26.0884 7.9682C25.2188 7.17924 24.2701 6.54808 23.2424 6.07471Z"></path>
  </g>
  <defs>
    <clipPath id="clip0_745_20348">
      <rect width="107.2" height="40" fill="white"></rect>
    </clipPath>
  </defs>
</svg>
