<svg xmlns="http://www.w3.org/2000/svg" width="1500.396" height="215.135" viewBox="0 0 1500.396 215.135">
  <g id="Group_443" data-name="Group 443" transform="translate(-23.779 -20.397)">
    <g id="Group_441" data-name="Group 441">
      <path id="Path_562" data-name="Path 562" d="M664.7,190.072a34.183,34.183,0,0,1-14.245-2.634,22.141,22.141,0,0,1-8.83-6.781,15.579,15.579,0,0,1-3.269-8.733,1.955,1.955,0,0,1,.634-1.414,2.064,2.064,0,0,1,1.513-.635h4.976a2.384,2.384,0,0,1,1.756.586,2.9,2.9,0,0,1,.78,1.366,12.058,12.058,0,0,0,2.44,4.634,13.722,13.722,0,0,0,5.317,3.806,22.488,22.488,0,0,0,8.928,1.512q8.391,0,12.343-2.976a9.456,9.456,0,0,0,3.951-7.952,7.456,7.456,0,0,0-2.1-5.513,18.4,18.4,0,0,0-6.391-3.756q-4.294-1.657-11.123-3.61a64.47,64.47,0,0,1-11.806-4.489,17.632,17.632,0,0,1-6.976-6.048,16.821,16.821,0,0,1-2.293-9.172,16.309,16.309,0,0,1,2.83-9.416,19.259,19.259,0,0,1,8.2-6.586,30.964,30.964,0,0,1,12.879-2.439,31.62,31.62,0,0,1,10.586,1.61,22.681,22.681,0,0,1,7.562,4.293,19.71,19.71,0,0,1,4.586,5.756,14.319,14.319,0,0,1,1.659,6,2.139,2.139,0,0,1-.488,1.317,1.844,1.844,0,0,1-1.561.635H681.38a2.99,2.99,0,0,1-1.414-.391,2.532,2.532,0,0,1-1.122-1.463,9.872,9.872,0,0,0-4.489-6.733q-3.9-2.73-10.147-2.732-6.344,0-10.293,2.44t-3.952,7.61a8.25,8.25,0,0,0,1.853,5.513,15.082,15.082,0,0,0,5.855,3.853,100.144,100.144,0,0,0,10.44,3.513,77.827,77.827,0,0,1,12.782,4.537,17.94,17.94,0,0,1,7.366,5.952,16.057,16.057,0,0,1,2.39,9.123,17.117,17.117,0,0,1-3.219,10.489,20.074,20.074,0,0,1-9.026,6.634A37.241,37.241,0,0,1,664.7,190.072Z" fill="#003047"/>
      <path id="Path_563" data-name="Path 563" d="M720.505,190.072q-10.148,0-16.1-6.2t-6.537-16.929q-.1-1.266-.1-3.268t.1-3.269a28.525,28.525,0,0,1,3.22-12.147,20.117,20.117,0,0,1,7.757-8.05,22.816,22.816,0,0,1,11.562-2.83,23.162,23.162,0,0,1,12.44,3.123,19.906,19.906,0,0,1,7.659,8.879,32.081,32.081,0,0,1,2.635,13.465v1.658a2.147,2.147,0,0,1-.634,1.659,2.287,2.287,0,0,1-1.61.585h-33.76v.878A20.409,20.409,0,0,0,708.9,175.1a13.724,13.724,0,0,0,4.537,5.61,11.6,11.6,0,0,0,6.976,2.147,14.041,14.041,0,0,0,5.854-1.074,15.009,15.009,0,0,0,3.8-2.39,11.412,11.412,0,0,0,1.952-2.1,5.059,5.059,0,0,1,1.366-1.415,3.7,3.7,0,0,1,1.561-.244h4.781a2.271,2.271,0,0,1,1.512.537,1.642,1.642,0,0,1,.537,1.512,7.569,7.569,0,0,1-1.561,3.561,19.184,19.184,0,0,1-4.147,4.147,22.659,22.659,0,0,1-6.635,3.366A28.129,28.129,0,0,1,720.505,190.072Zm-13.367-30.051h26.735v-.293a18.1,18.1,0,0,0-1.61-7.8,13,13,0,0,0-4.635-5.416,12.8,12.8,0,0,0-7.22-2,12.565,12.565,0,0,0-7.172,2,12.749,12.749,0,0,0-4.536,5.416,18.562,18.562,0,0,0-1.562,7.8Z" fill="#003047"/>
      <path id="Path_564" data-name="Path 564" d="M773.389,190.072a25.046,25.046,0,0,1-11.953-2.682,18.644,18.644,0,0,1-7.757-7.709,26.443,26.443,0,0,1-2.927-12.05q-.1-1.464-.1-3.9t.1-3.9a26.456,26.456,0,0,1,2.927-12.05,18.659,18.659,0,0,1,7.757-7.708,25.046,25.046,0,0,1,11.953-2.683,27.045,27.045,0,0,1,9.707,1.561,20.658,20.658,0,0,1,6.683,4,16.958,16.958,0,0,1,3.953,5.269,14.086,14.086,0,0,1,1.414,5.366,1.711,1.711,0,0,1-.585,1.562,2.473,2.473,0,0,1-1.659.585h-4.683a2.122,2.122,0,0,1-1.463-.44,4.609,4.609,0,0,1-.977-1.512Q784.024,149,781,147.044a13.584,13.584,0,0,0-7.512-1.951,12.968,12.968,0,0,0-9.513,3.609q-3.66,3.61-3.952,11.611-.1,3.513,0,6.831.293,8.1,3.952,11.659a13.053,13.053,0,0,0,9.513,3.561A13.576,13.576,0,0,0,781,180.413q3.024-1.951,4.781-6.732a5.405,5.405,0,0,1,.977-1.562,1.989,1.989,0,0,1,1.463-.487H792.9a2.357,2.357,0,0,1,1.659.634,1.834,1.834,0,0,1,.585,1.61,14.236,14.236,0,0,1-.878,4.195,16.133,16.133,0,0,1-2.489,4.342,18.1,18.1,0,0,1-4.244,3.9,21.566,21.566,0,0,1-6.049,2.732A29.024,29.024,0,0,1,773.389,190.072Z" fill="#003047"/>
      <path id="Path_565" data-name="Path 565" d="M823.732,190.072a19.223,19.223,0,0,1-10.586-2.78,17.5,17.5,0,0,1-6.585-7.757,27.473,27.473,0,0,1-2.245-11.416V140.6a2.169,2.169,0,0,1,2.245-2.244h4.878a2.169,2.169,0,0,1,2.244,2.244v27.027q0,14.54,12.684,14.538a12.756,12.756,0,0,0,9.708-3.854q3.66-3.854,3.659-10.684V140.6a2.169,2.169,0,0,1,2.245-2.244h4.878a2.027,2.027,0,0,1,1.561.634A2.283,2.283,0,0,1,849,140.6v46.249a2.278,2.278,0,0,1-.586,1.61,2.02,2.02,0,0,1-1.561.634h-4.586a2.169,2.169,0,0,1-2.244-2.244V182.56a20.214,20.214,0,0,1-6.391,5.463A20.648,20.648,0,0,1,823.732,190.072Z" fill="#003047"/>
      <path id="Path_566" data-name="Path 566" d="M863.833,189.1a2.171,2.171,0,0,1-2.244-2.244V140.7a2.349,2.349,0,0,1,.635-1.659,2.1,2.1,0,0,1,1.609-.683h4.488a2.332,2.332,0,0,1,2.342,2.342v4.293a12.386,12.386,0,0,1,5.366-4.975,18.851,18.851,0,0,1,8.294-1.66h3.806a2.171,2.171,0,0,1,2.244,2.244v4a2.023,2.023,0,0,1-.635,1.562,2.284,2.284,0,0,1-1.609.585h-5.855a11.107,11.107,0,0,0-8.294,3.073,11.38,11.38,0,0,0-3.024,8.343v28.686a2.1,2.1,0,0,1-.683,1.61,2.347,2.347,0,0,1-1.659.634Z" fill="#003047"/>
      <path id="Path_567" data-name="Path 567" d="M898.178,128.9a2.169,2.169,0,0,1-2.244-2.244v-5.269a2.351,2.351,0,0,1,.634-1.659,2.1,2.1,0,0,1,1.61-.683h6.147a2.334,2.334,0,0,1,2.342,2.342v5.269a2.1,2.1,0,0,1-.684,1.61,2.344,2.344,0,0,1-1.658.634Zm.78,60.2a2.171,2.171,0,0,1-2.244-2.244V140.6a2.171,2.171,0,0,1,2.244-2.244h4.684a2.169,2.169,0,0,1,2.244,2.244v46.249a2.169,2.169,0,0,1-2.244,2.244Z" fill="#003047"/>
      <path id="Path_568" data-name="Path 568" d="M938.181,189.1A16.756,16.756,0,0,1,929.3,187a12.105,12.105,0,0,1-4.977-5.952,24.222,24.222,0,0,1-1.56-9.123V146.166h-7.612a2.172,2.172,0,0,1-2.244-2.244V140.6a2.171,2.171,0,0,1,2.244-2.244h7.612V122.066a2.168,2.168,0,0,1,2.244-2.244h4.585a2.169,2.169,0,0,1,2.244,2.244V138.36h12.1a2.15,2.15,0,0,1,1.659.634,2.287,2.287,0,0,1,.585,1.61v3.318a2.279,2.279,0,0,1-.585,1.609,2.144,2.144,0,0,1-1.659.635h-12.1v25.075a14.162,14.162,0,0,0,1.561,7.221q1.56,2.634,5.562,2.634h5.952a2.171,2.171,0,0,1,2.244,2.244v3.513a2.171,2.171,0,0,1-2.244,2.244Z" fill="#003047"/>
      <path id="Path_569" data-name="Path 569" d="M956.034,128.9a2.171,2.171,0,0,1-2.244-2.244v-5.269a2.347,2.347,0,0,1,.635-1.659,2.1,2.1,0,0,1,1.609-.683h6.148a2.332,2.332,0,0,1,2.341,2.342v5.269a2.106,2.106,0,0,1-.683,1.61,2.346,2.346,0,0,1-1.658.634Zm.78,60.2a2.171,2.171,0,0,1-2.244-2.244V140.6a2.171,2.171,0,0,1,2.244-2.244H961.5a2.169,2.169,0,0,1,2.244,2.244v46.249A2.169,2.169,0,0,1,961.5,189.1Z" fill="#003047"/>
      <path id="Path_570" data-name="Path 570" d="M996.525,190.072q-10.148,0-16.1-6.2t-6.537-16.929q-.1-1.266-.1-3.268t.1-3.269a28.51,28.51,0,0,1,3.219-12.147,20.11,20.11,0,0,1,7.757-8.05,22.813,22.813,0,0,1,11.562-2.83,23.161,23.161,0,0,1,12.44,3.123,19.9,19.9,0,0,1,7.659,8.879,32.08,32.08,0,0,1,2.635,13.465v1.658a2.144,2.144,0,0,1-.635,1.659,2.282,2.282,0,0,1-1.609.585h-33.76v.878a20.389,20.389,0,0,0,1.757,7.465,13.716,13.716,0,0,0,4.537,5.61,11.607,11.607,0,0,0,6.976,2.147,14.04,14.04,0,0,0,5.854-1.074,15.033,15.033,0,0,0,3.806-2.39,11.4,11.4,0,0,0,1.951-2.1,5.044,5.044,0,0,1,1.366-1.415,3.7,3.7,0,0,1,1.561-.244h4.781a2.271,2.271,0,0,1,1.512.537,1.642,1.642,0,0,1,.537,1.512,7.553,7.553,0,0,1-1.562,3.561,19.157,19.157,0,0,1-4.146,4.147,22.66,22.66,0,0,1-6.635,3.366A28.129,28.129,0,0,1,996.525,190.072Zm-13.367-30.051h26.735v-.293a18.1,18.1,0,0,0-1.61-7.8,12.988,12.988,0,0,0-4.635-5.416,12.8,12.8,0,0,0-7.22-2,12.562,12.562,0,0,0-7.171,2,12.752,12.752,0,0,0-4.537,5.416,18.578,18.578,0,0,0-1.562,7.8Z" fill="#003047"/>
      <path id="Path_571" data-name="Path 571" d="M1046.481,190.072a28.478,28.478,0,0,1-9.367-1.366,21.38,21.38,0,0,1-6.342-3.317,16.064,16.064,0,0,1-3.659-3.9,7.69,7.69,0,0,1-1.317-3.122,1.734,1.734,0,0,1,.683-1.659,2.594,2.594,0,0,1,1.561-.585h4.391a2.106,2.106,0,0,1,.83.147,3.162,3.162,0,0,1,.927.829,37.461,37.461,0,0,0,2.829,2.731,12.618,12.618,0,0,0,3.854,2.244,18.747,18.747,0,0,0,13.9-1.024,6.129,6.129,0,0,0,3.22-5.61,5.613,5.613,0,0,0-1.317-3.9,11.381,11.381,0,0,0-4.683-2.635,83.063,83.063,0,0,0-9.221-2.439,33.8,33.8,0,0,1-9.269-3.366,12.313,12.313,0,0,1-4.878-4.781,13.3,13.3,0,0,1-1.464-6.293,12.8,12.8,0,0,1,2.147-6.976,15.9,15.9,0,0,1,6.293-5.513,22.48,22.48,0,0,1,10.391-2.147,26.324,26.324,0,0,1,8.684,1.269,19.78,19.78,0,0,1,5.952,3.171,16.175,16.175,0,0,1,3.513,3.756,7.318,7.318,0,0,1,1.268,3.122,1.838,1.838,0,0,1-.586,1.611,2.227,2.227,0,0,1-1.56.633h-4.1a1.984,1.984,0,0,1-1.122-.292,5.373,5.373,0,0,1-.829-.683,23.155,23.155,0,0,0-2.293-2.536,10.364,10.364,0,0,0-3.415-2.1,15.278,15.278,0,0,0-5.513-.829q-4.88,0-7.317,2.049a6.467,6.467,0,0,0-2.44,5.172,5.459,5.459,0,0,0,1.074,3.317,9.068,9.068,0,0,0,4.1,2.634,69.711,69.711,0,0,0,8.977,2.537,33.509,33.509,0,0,1,10.147,3.415,13.516,13.516,0,0,1,5.269,4.975,13.331,13.331,0,0,1,1.561,6.539,13,13,0,0,1-2.341,7.512,15.688,15.688,0,0,1-7.026,5.415A29.36,29.36,0,0,1,1046.481,190.072Z" fill="#003047"/>
      <path id="Path_572" data-name="Path 572" d="M1102.192,189.1a2.139,2.139,0,0,1-1.658-.634,2.282,2.282,0,0,1-.586-1.61V123.139a2.42,2.42,0,0,1,.586-1.707,2.143,2.143,0,0,1,1.658-.635h40.3a2.142,2.142,0,0,1,1.658.635,2.416,2.416,0,0,1,.586,1.707v3.708a2.04,2.04,0,0,1-2.244,2.244h-33.174v21.368h31.028a2.146,2.146,0,0,1,1.658.634,2.42,2.42,0,0,1,.586,1.708v3.609a2.277,2.277,0,0,1-.586,1.611,2.142,2.142,0,0,1-1.658.633h-31.028V180.8h33.955a2.039,2.039,0,0,1,2.244,2.244v3.806a2.286,2.286,0,0,1-.585,1.61,2.144,2.144,0,0,1-1.659.634Z" fill="#003047"/>
      <path id="Path_573" data-name="Path 573" d="M1153.514,189.1a2.038,2.038,0,0,1-1.415-.585,1.908,1.908,0,0,1-.635-1.464,2.42,2.42,0,0,1,.146-.732,4.523,4.523,0,0,1,.537-1.025l16.978-22.148-15.9-20.978a5.009,5.009,0,0,1-.537-.976,2.188,2.188,0,0,1-.147-.78,2,2,0,0,1,2.05-2.049h4.976a2.375,2.375,0,0,1,1.659.537,4.865,4.865,0,0,1,.878,1.024l12.976,16.88,12.977-16.781q.39-.489.927-1.075a2.075,2.075,0,0,1,1.61-.585h4.781a2,2,0,0,1,2.049,2.049,2.185,2.185,0,0,1-.147.78,5.1,5.1,0,0,1-.536.976l-16.1,21.173,16.977,21.953a5.166,5.166,0,0,1,.536.977,2.2,2.2,0,0,1,.147.78,2,2,0,0,1-2.049,2.049h-5.171a2.344,2.344,0,0,1-1.561-.489,6.7,6.7,0,0,1-.976-.975l-13.66-17.856-13.855,17.856-.926.927a2.191,2.191,0,0,1-1.611.537Z" fill="#003047"/>
      <path id="Path_574" data-name="Path 574" d="M1226.982,190.072a25.044,25.044,0,0,1-11.952-2.682,18.644,18.644,0,0,1-7.757-7.709,26.458,26.458,0,0,1-2.927-12.05q-.1-1.464-.1-3.9t.1-3.9a26.471,26.471,0,0,1,2.927-12.05,18.659,18.659,0,0,1,7.757-7.708,25.044,25.044,0,0,1,11.952-2.683,27.046,27.046,0,0,1,9.708,1.561,20.663,20.663,0,0,1,6.684,4,16.986,16.986,0,0,1,3.952,5.269,14.05,14.05,0,0,1,1.414,5.366,1.714,1.714,0,0,1-.585,1.562,2.471,2.471,0,0,1-1.659.585h-4.683a2.122,2.122,0,0,1-1.463-.44,4.576,4.576,0,0,1-.976-1.512q-1.757-4.779-4.781-6.732a13.59,13.59,0,0,0-7.513-1.951,12.973,12.973,0,0,0-9.514,3.609q-3.657,3.61-3.951,11.611-.1,3.513,0,6.831.294,8.1,3.951,11.659a13.058,13.058,0,0,0,9.514,3.561,13.582,13.582,0,0,0,7.513-1.951q3.023-1.951,4.781-6.732a5.362,5.362,0,0,1,.976-1.562,1.988,1.988,0,0,1,1.463-.487h4.683a2.355,2.355,0,0,1,1.659.634,1.837,1.837,0,0,1,.585,1.61,14.2,14.2,0,0,1-.878,4.195,16.133,16.133,0,0,1-2.488,4.342,18.143,18.143,0,0,1-4.244,3.9,21.581,21.581,0,0,1-6.049,2.732A29.039,29.039,0,0,1,1226.982,190.072Z" fill="#003047"/>
      <path id="Path_575" data-name="Path 575" d="M1260.74,189.1a2.171,2.171,0,0,1-2.244-2.244V122.066a2.171,2.171,0,0,1,2.244-2.244h4.879a2.145,2.145,0,0,1,1.658.634,2.283,2.283,0,0,1,.586,1.61V144.8a20.6,20.6,0,0,1,6.44-5.366,20.234,20.234,0,0,1,9.659-2.05,19.929,19.929,0,0,1,10.782,2.781,17.693,17.693,0,0,1,6.733,7.708,26.942,26.942,0,0,1,2.293,11.465v27.515a2.282,2.282,0,0,1-.586,1.61,2.143,2.143,0,0,1-1.659.634h-4.879a2.169,2.169,0,0,1-2.244-2.244V159.825q0-6.828-3.317-10.683t-9.757-3.854a12.919,12.919,0,0,0-9.757,3.854q-3.71,3.855-3.708,10.683v27.028a2.278,2.278,0,0,1-.586,1.61,2.138,2.138,0,0,1-1.658.634Z" fill="#003047"/>
      <path id="Path_576" data-name="Path 576" d="M1330.015,190.072a19.972,19.972,0,0,1-8.879-1.951,17.157,17.157,0,0,1-6.44-5.268,12.357,12.357,0,0,1-2.439-7.514,12.635,12.635,0,0,1,5.464-10.733q5.462-4,14.245-5.268l14.538-2.049v-2.83a9.787,9.787,0,0,0-2.684-7.317q-2.683-2.636-8.732-2.635a12.775,12.775,0,0,0-7.025,1.757,9.359,9.359,0,0,0-3.8,4.488,2.075,2.075,0,0,1-2.049,1.463h-4.391a1.984,1.984,0,0,1-1.61-.634,2.264,2.264,0,0,1-.536-1.513,8.192,8.192,0,0,1,1.122-3.61,14.809,14.809,0,0,1,3.464-4.195,19.923,19.923,0,0,1,6-3.464,24.86,24.86,0,0,1,8.928-1.415,28.032,28.032,0,0,1,9.854,1.513,15.857,15.857,0,0,1,6.293,4.049,15.526,15.526,0,0,1,3.318,5.756,21.451,21.451,0,0,1,1.025,6.538v31.613a2.171,2.171,0,0,1-2.244,2.244h-4.489a2.141,2.141,0,0,1-1.659-.634,2.286,2.286,0,0,1-.585-1.61v-4.2a17.854,17.854,0,0,1-8.781,6.293A24.235,24.235,0,0,1,1330.015,190.072Zm2.048-7.317a15.748,15.748,0,0,0,7.318-1.708,12.134,12.134,0,0,0,5.221-5.318,19.345,19.345,0,0,0,1.9-9.074v-2.731l-11.318,1.658q-6.93.977-10.441,3.269t-3.512,5.805a6.561,6.561,0,0,0,1.61,4.537,9.7,9.7,0,0,0,4.1,2.684A15.3,15.3,0,0,0,1332.063,182.755Z" fill="#003047"/>
      <path id="Path_577" data-name="Path 577" d="M1370.017,189.1a2.171,2.171,0,0,1-2.245-2.244V140.6a2.171,2.171,0,0,1,2.245-2.244h4.586a2.169,2.169,0,0,1,2.244,2.244V144.9a19.924,19.924,0,0,1,6.391-5.415,20.61,20.61,0,0,1,9.9-2.1,19.925,19.925,0,0,1,10.781,2.781,17.685,17.685,0,0,1,6.732,7.708,26.928,26.928,0,0,1,2.293,11.465v27.515a2.171,2.171,0,0,1-2.244,2.244h-4.879a2.171,2.171,0,0,1-2.244-2.244V159.825q0-6.828-3.317-10.683t-9.757-3.854a12.761,12.761,0,0,0-9.708,3.854q-3.66,3.855-3.659,10.683v27.028a2.169,2.169,0,0,1-2.244,2.244Z" fill="#003047"/>
      <path id="Path_578" data-name="Path 578" d="M1445.73,210.563a28.71,28.71,0,0,1-10.878-1.757,19.277,19.277,0,0,1-6.635-4.244,16.214,16.214,0,0,1-3.415-4.976,13.47,13.47,0,0,1-1.122-3.952,1.9,1.9,0,0,1,.633-1.658,2.314,2.314,0,0,1,1.611-.684h4.682a2.576,2.576,0,0,1,1.464.391,3,3,0,0,1,.976,1.658,19.376,19.376,0,0,0,1.757,3.268,9.6,9.6,0,0,0,3.609,3.123,14.554,14.554,0,0,0,6.83,1.317,20.583,20.583,0,0,0,7.708-1.268,9.111,9.111,0,0,0,4.733-4.294,18.064,18.064,0,0,0,1.61-8.39v-6.635a18.508,18.508,0,0,1-6.147,5.024,20.418,20.418,0,0,1-9.562,2,21.179,21.179,0,0,1-9.367-1.9,17.524,17.524,0,0,1-6.391-5.171,22.609,22.609,0,0,1-3.708-7.464,36.909,36.909,0,0,1-1.414-8.781q-.1-2.73,0-5.366a36.926,36.926,0,0,1,1.414-8.782,23.19,23.19,0,0,1,3.708-7.513,17.355,17.355,0,0,1,6.391-5.22,21.193,21.193,0,0,1,9.367-1.9,18.837,18.837,0,0,1,16,7.513v-4.2a2.349,2.349,0,0,1,.635-1.659,2.1,2.1,0,0,1,1.609-.683h4.488a2.33,2.33,0,0,1,2.342,2.342v47.321a28.988,28.988,0,0,1-2.2,11.611,16.856,16.856,0,0,1-7.22,8Q1454.217,210.563,1445.73,210.563Zm-.195-28.881a12.718,12.718,0,0,0,7.855-2.244,13.4,13.4,0,0,0,4.39-5.66,19.4,19.4,0,0,0,1.513-6.927q.094-1.366.1-3.367t-.1-3.366a19.419,19.419,0,0,0-1.513-6.928,13.416,13.416,0,0,0-4.39-5.659,14.926,14.926,0,0,0-15.661-.048,12.093,12.093,0,0,0-4.195,5.756,26.456,26.456,0,0,0-1.464,7.659q-.1,2.54,0,5.172a26.437,26.437,0,0,0,1.464,7.659,12.091,12.091,0,0,0,4.195,5.757A12.7,12.7,0,0,0,1445.535,181.682Z" fill="#003047"/>
      <path id="Path_579" data-name="Path 579" d="M1501.539,190.072q-10.149,0-16.1-6.2t-6.537-16.929q-.1-1.266-.1-3.268t.1-3.269a28.51,28.51,0,0,1,3.22-12.147,20.11,20.11,0,0,1,7.757-8.05,22.812,22.812,0,0,1,11.561-2.83,23.165,23.165,0,0,1,12.441,3.123,19.911,19.911,0,0,1,7.659,8.879,32.081,32.081,0,0,1,2.635,13.465v1.658a2.144,2.144,0,0,1-.635,1.659,2.284,2.284,0,0,1-1.609.585h-33.76v.878a20.389,20.389,0,0,0,1.757,7.465,13.709,13.709,0,0,0,4.537,5.61,11.6,11.6,0,0,0,6.975,2.147,14.049,14.049,0,0,0,5.855-1.074,15.052,15.052,0,0,0,3.806-2.39,11.4,11.4,0,0,0,1.951-2.1,5.045,5.045,0,0,1,1.366-1.415,3.7,3.7,0,0,1,1.56-.244h4.782a2.267,2.267,0,0,1,1.511.537,1.643,1.643,0,0,1,.538,1.512,7.553,7.553,0,0,1-1.562,3.561,19.18,19.18,0,0,1-4.146,4.147,22.66,22.66,0,0,1-6.635,3.366A28.134,28.134,0,0,1,1501.539,190.072Zm-13.367-30.051h26.734v-.293a18.1,18.1,0,0,0-1.609-7.8,12.988,12.988,0,0,0-4.635-5.416,12.807,12.807,0,0,0-7.221-2,12.561,12.561,0,0,0-7.17,2,12.753,12.753,0,0,0-4.538,5.416,18.577,18.577,0,0,0-1.561,7.8Z" fill="#003047"/>
    </g>
    <g id="Group_442" data-name="Group 442">
      <path id="Path_580" data-name="Path 580" d="M669.379,90.648a36.542,36.542,0,0,1-15.025-2.878,21.319,21.319,0,0,1-9.953-8.879q-3.512-6-3.512-15.27V23.813a2.34,2.34,0,0,1,2.439-2.44h10.635a2.34,2.34,0,0,1,2.439,2.44v39.71q0,7.222,3.415,10.733t9.562,3.513q6.049,0,9.465-3.513t3.414-10.733V23.813a2.3,2.3,0,0,1,.732-1.757,2.43,2.43,0,0,1,1.708-.683h10.733a2.265,2.265,0,0,1,1.658.683,2.384,2.384,0,0,1,.683,1.757V63.621q0,9.272-3.512,15.27a21.405,21.405,0,0,1-9.855,8.879A36.128,36.128,0,0,1,669.379,90.648Z" fill="#d6112d"/>
      <path id="Path_581" data-name="Path 581" d="M711.042,89.672a2.34,2.34,0,0,1-2.44-2.439v-64.4a2.341,2.341,0,0,1,2.44-2.44H720.8a2.263,2.263,0,0,1,1.659.684,2.382,2.382,0,0,1,.683,1.756v64.4a2.377,2.377,0,0,1-.683,1.756,2.258,2.258,0,0,1-1.659.683Z" fill="#d6112d"/>
      <path id="Path_582" data-name="Path 582" d="M748.41,90.648a20.874,20.874,0,0,1-9.269-2,17.02,17.02,0,0,1-6.537-5.415,13.313,13.313,0,0,1,3.171-18.539q5.61-4,14.782-5.464l12.781-1.854V55.62a8.738,8.738,0,0,0-1.756-5.854q-1.756-2.049-6.147-2.049a9.377,9.377,0,0,0-5.171,1.268,8.724,8.724,0,0,0-3.025,3.318,2.486,2.486,0,0,1-2.244,1.268h-9.269a2.14,2.14,0,0,1-1.659-.634,1.828,1.828,0,0,1-.487-1.512,8.231,8.231,0,0,1,1.268-3.9,16.537,16.537,0,0,1,3.9-4.439,21.953,21.953,0,0,1,6.733-3.659,30.076,30.076,0,0,1,10.05-1.464,33.486,33.486,0,0,1,10.537,1.464,17.626,17.626,0,0,1,7.026,4.1,16.631,16.631,0,0,1,3.9,6.1,21.553,21.553,0,0,1,1.269,7.464V87.233a2.34,2.34,0,0,1-2.44,2.439h-9.561a2.257,2.257,0,0,1-1.66-.683,2.369,2.369,0,0,1-.682-1.756v-3.61a14.941,14.941,0,0,1-3.415,3.464,17.589,17.589,0,0,1-5.123,2.585A22.456,22.456,0,0,1,748.41,90.648Zm3.9-10.147a11.952,11.952,0,0,0,5.757-1.366,9.617,9.617,0,0,0,4-4.2,15.413,15.413,0,0,0,1.464-7.123V66.158l-9.075,1.464q-5.268.877-7.708,2.634a5.165,5.165,0,0,0-2.439,4.293,4.917,4.917,0,0,0,1.122,3.22,6.774,6.774,0,0,0,2.976,2.049A11.2,11.2,0,0,0,752.313,80.5Z" fill="#d6112d"/>
      <path id="Path_583" data-name="Path 583" d="M803.048,90.648a20.884,20.884,0,0,1-9.27-2,17.027,17.027,0,0,1-6.537-5.415,13.313,13.313,0,0,1,3.171-18.539q5.61-4,14.782-5.464l12.783-1.854V55.62a8.738,8.738,0,0,0-1.757-5.854q-1.756-2.049-6.147-2.049a9.382,9.382,0,0,0-5.172,1.268,8.729,8.729,0,0,0-3.024,3.318,2.488,2.488,0,0,1-2.244,1.268h-9.27a2.139,2.139,0,0,1-1.658-.634,1.826,1.826,0,0,1-.488-1.512,8.243,8.243,0,0,1,1.268-3.9,16.532,16.532,0,0,1,3.9-4.439,21.936,21.936,0,0,1,6.732-3.659,30.076,30.076,0,0,1,10.05-1.464,33.486,33.486,0,0,1,10.537,1.464,17.615,17.615,0,0,1,7.025,4.1,16.633,16.633,0,0,1,3.9,6.1,21.577,21.577,0,0,1,1.268,7.464V87.233a2.338,2.338,0,0,1-2.439,2.439H820.9a2.255,2.255,0,0,1-1.659-.683,2.373,2.373,0,0,1-.682-1.756v-3.61a14.948,14.948,0,0,1-3.416,3.464,17.571,17.571,0,0,1-5.122,2.585A22.461,22.461,0,0,1,803.048,90.648Zm3.9-10.147a11.943,11.943,0,0,0,5.757-1.366,9.614,9.614,0,0,0,4-4.2,15.414,15.414,0,0,0,1.463-7.123V66.158L809.1,67.622q-5.27.877-7.709,2.634a5.165,5.165,0,0,0-2.439,4.293,4.912,4.912,0,0,0,1.122,3.22,6.773,6.773,0,0,0,2.976,2.049A11.2,11.2,0,0,0,806.95,80.5Z" fill="#d6112d"/>
      <path id="Path_584" data-name="Path 584" d="M845.1,89.672a2.255,2.255,0,0,1-1.659-.683,2.37,2.37,0,0,1-.683-1.756V41.375a2.376,2.376,0,0,1,.683-1.756,2.263,2.263,0,0,1,1.659-.683h9.562a2.341,2.341,0,0,1,2.44,2.439V45.18a20.037,20.037,0,0,1,6.537-5.171A21.207,21.207,0,0,1,873.4,37.96a19.371,19.371,0,0,1,10.1,2.586,17.863,17.863,0,0,1,6.83,7.513,26.292,26.292,0,0,1,2.488,11.952V87.233a2.29,2.29,0,0,1-.732,1.756,2.423,2.423,0,0,1-1.707.683H880.03a2.338,2.338,0,0,1-2.439-2.439V60.6q0-5.171-2.488-8.049t-7.269-2.879a9.613,9.613,0,0,0-7.318,2.879q-2.733,2.878-2.732,8.049V87.233a2.377,2.377,0,0,1-.682,1.756,2.26,2.26,0,0,1-1.66.683Z" fill="#d6112d"/>
      <path id="Path_585" data-name="Path 585" d="M932.034,90.648a20.187,20.187,0,0,1-9.269-1.9,18.307,18.307,0,0,1-6.049-4.83v3.317a2.341,2.341,0,0,1-2.44,2.439h-9.269a2.341,2.341,0,0,1-2.44-2.439v-64.4a2.342,2.342,0,0,1,2.44-2.44h10.05a2.265,2.265,0,0,1,1.659.684,2.382,2.382,0,0,1,.682,1.756v21.27a18.75,18.75,0,0,1,6.05-4.44,19.937,19.937,0,0,1,8.586-1.707,21.2,21.2,0,0,1,8.83,1.707,18.277,18.277,0,0,1,6.391,4.782,21.678,21.678,0,0,1,4.049,7.268,30.79,30.79,0,0,1,1.512,9.27q.1,1.757.1,3.268t-.1,3.367a33.774,33.774,0,0,1-1.609,9.415,22.093,22.093,0,0,1-4,7.318,16.836,16.836,0,0,1-6.342,4.683A22.3,22.3,0,0,1,932.034,90.648Zm-4.39-11.709A9.556,9.556,0,0,0,933.5,77.33a8.854,8.854,0,0,0,3.073-4.245,21.3,21.3,0,0,0,1.122-5.756,47.328,47.328,0,0,0,0-6.05,21.305,21.305,0,0,0-1.122-5.756,8.859,8.859,0,0,0-3.073-4.245,11.332,11.332,0,0,0-11.562-.049,9.994,9.994,0,0,0-3.318,3.952A13.014,13.014,0,0,0,917.4,60.3q-.1,1.756-.1,3.61t.1,3.708a18.545,18.545,0,0,0,1.171,5.463,9.247,9.247,0,0,0,3.22,4.2A9.6,9.6,0,0,0,927.644,78.939Z" fill="#d6112d"/>
      <path id="Path_586" data-name="Path 586" d="M976.233,90.648a20.877,20.877,0,0,1-9.269-2,17.02,17.02,0,0,1-6.537-5.415A13.31,13.31,0,0,1,963.6,64.694q5.61-4,14.782-5.464l12.782-1.854V55.62a8.739,8.739,0,0,0-1.757-5.854q-1.757-2.049-6.146-2.049a9.38,9.38,0,0,0-5.172,1.268,8.714,8.714,0,0,0-3.024,3.318,2.488,2.488,0,0,1-2.245,1.268h-9.269a2.138,2.138,0,0,1-1.658-.634,1.83,1.83,0,0,1-.489-1.512,8.234,8.234,0,0,1,1.269-3.9,16.525,16.525,0,0,1,3.9-4.439,21.93,21.93,0,0,1,6.733-3.659,30.07,30.07,0,0,1,10.049-1.464,33.493,33.493,0,0,1,10.538,1.464,17.629,17.629,0,0,1,7.025,4.1,16.617,16.617,0,0,1,3.9,6.1,21.553,21.553,0,0,1,1.269,7.464V87.233a2.34,2.34,0,0,1-2.44,2.439h-9.561a2.255,2.255,0,0,1-1.659-.683,2.373,2.373,0,0,1-.683-1.756v-3.61a14.941,14.941,0,0,1-3.415,3.464,17.6,17.6,0,0,1-5.122,2.585A22.468,22.468,0,0,1,976.233,90.648Zm3.9-10.147a11.949,11.949,0,0,0,5.757-1.366,9.614,9.614,0,0,0,4-4.2,15.427,15.427,0,0,0,1.462-7.123V66.158l-9.073,1.464q-5.268.877-7.709,2.634a5.164,5.164,0,0,0-2.438,4.293,4.912,4.912,0,0,0,1.122,3.22,6.771,6.771,0,0,0,2.975,2.049A11.212,11.212,0,0,0,980.136,80.5Z" fill="#d6112d"/>
      <path id="Path_587" data-name="Path 587" d="M1030.871,90.648a20.877,20.877,0,0,1-9.269-2,17.023,17.023,0,0,1-6.538-5.415,13.313,13.313,0,0,1,3.171-18.539q5.612-4,14.783-5.464l12.782-1.854V55.62a8.738,8.738,0,0,0-1.757-5.854q-1.757-2.049-6.147-2.049a9.377,9.377,0,0,0-5.171,1.268A8.725,8.725,0,0,0,1029.7,52.3a2.486,2.486,0,0,1-2.244,1.268h-9.269a2.141,2.141,0,0,1-1.659-.634,1.832,1.832,0,0,1-.488-1.512,8.234,8.234,0,0,1,1.269-3.9,16.508,16.508,0,0,1,3.9-4.439,21.936,21.936,0,0,1,6.732-3.659,30.076,30.076,0,0,1,10.05-1.464,33.486,33.486,0,0,1,10.537,1.464,17.626,17.626,0,0,1,7.026,4.1,16.63,16.63,0,0,1,3.9,6.1,21.554,21.554,0,0,1,1.269,7.464V87.233a2.34,2.34,0,0,1-2.44,2.439h-9.561a2.255,2.255,0,0,1-1.66-.683,2.373,2.373,0,0,1-.682-1.756v-3.61a14.962,14.962,0,0,1-3.415,3.464,17.6,17.6,0,0,1-5.122,2.585A22.472,22.472,0,0,1,1030.871,90.648Zm3.9-10.147a11.944,11.944,0,0,0,5.757-1.366,9.6,9.6,0,0,0,4-4.2,15.415,15.415,0,0,0,1.463-7.123V66.158l-9.073,1.464q-5.27.877-7.709,2.634a5.165,5.165,0,0,0-2.439,4.293,4.907,4.907,0,0,0,1.123,3.22,6.77,6.77,0,0,0,2.975,2.049A11.2,11.2,0,0,0,1034.773,80.5Z" fill="#d6112d"/>
      <path id="Path_588" data-name="Path 588" d="M1094.973,89.672a24.326,24.326,0,0,1-10.342-2,13.613,13.613,0,0,1-6.488-6.195,22.579,22.579,0,0,1-2.2-10.538V50.449h-7.611a2.339,2.339,0,0,1-2.439-2.439V41.375a2.339,2.339,0,0,1,2.439-2.439h7.611v-16.1a2.29,2.29,0,0,1,.732-1.756,2.424,2.424,0,0,1,1.707-.684h9.562a2.342,2.342,0,0,1,2.44,2.44v16.1h12.2a2.265,2.265,0,0,1,1.658.683,2.383,2.383,0,0,1,.683,1.756V48.01a2.377,2.377,0,0,1-.683,1.756,2.257,2.257,0,0,1-1.658.683h-12.2V69.768a10.881,10.881,0,0,0,1.316,5.805q1.319,2.1,4.635,2.1h7.123a2.334,2.334,0,0,1,2.342,2.342v7.22a2.374,2.374,0,0,1-.684,1.756,2.256,2.256,0,0,1-1.658.683Z" fill="#d6112d"/>
      <path id="Path_589" data-name="Path 589" d="M1127.269,90.648a20.878,20.878,0,0,1-9.27-2,17.027,17.027,0,0,1-6.537-5.415,13.31,13.31,0,0,1,3.171-18.539q5.61-4,14.782-5.464l12.782-1.854V55.62a8.738,8.738,0,0,0-1.757-5.854q-1.755-2.049-6.146-2.049a9.38,9.38,0,0,0-5.172,1.268A8.721,8.721,0,0,0,1126.1,52.3a2.488,2.488,0,0,1-2.244,1.268h-9.27a2.138,2.138,0,0,1-1.658-.634,1.826,1.826,0,0,1-.488-1.512,8.231,8.231,0,0,1,1.268-3.9,16.542,16.542,0,0,1,3.9-4.439,21.929,21.929,0,0,1,6.733-3.659,30.071,30.071,0,0,1,10.05-1.464,33.49,33.49,0,0,1,10.537,1.464,17.628,17.628,0,0,1,7.025,4.1,16.617,16.617,0,0,1,3.9,6.1,21.552,21.552,0,0,1,1.269,7.464V87.233a2.339,2.339,0,0,1-2.439,2.439h-9.562a2.255,2.255,0,0,1-1.659-.683,2.374,2.374,0,0,1-.683-1.756v-3.61a14.92,14.92,0,0,1-3.415,3.464,17.57,17.57,0,0,1-5.122,2.585A22.46,22.46,0,0,1,1127.269,90.648Zm3.9-10.147a11.949,11.949,0,0,0,5.757-1.366,9.613,9.613,0,0,0,4-4.2,15.425,15.425,0,0,0,1.463-7.123V66.158l-9.074,1.464q-5.268.877-7.709,2.634a5.164,5.164,0,0,0-2.438,4.293,4.912,4.912,0,0,0,1.122,3.22,6.768,6.768,0,0,0,2.976,2.049A11.2,11.2,0,0,0,1131.171,80.5Z" fill="#d6112d"/>
      <path id="Path_590" data-name="Path 590" d="M1169.32,89.672a2.253,2.253,0,0,1-1.658-.683,2.37,2.37,0,0,1-.683-1.756V41.375a2.425,2.425,0,0,1,.683-1.708,2.184,2.184,0,0,1,1.658-.731h9.563a2.5,2.5,0,0,1,2.439,2.439v3.9a16.6,16.6,0,0,1,6-4.683,19.329,19.329,0,0,1,8.245-1.659h4.2a2.264,2.264,0,0,1,1.658.683,2.38,2.38,0,0,1,.683,1.756v8.391a2.375,2.375,0,0,1-.683,1.756,2.257,2.257,0,0,1-1.658.684h-8.586a9.2,9.2,0,0,0-6.733,2.39,9.062,9.062,0,0,0-2.439,6.781V87.233a2.34,2.34,0,0,1-2.44,2.439Z" fill="#d6112d"/>
    </g>
    <path id="Path_591" data-name="Path 591" d="M362.752,142.713q-10.374-13.572-28.671-19.37a51.312,51.312,0,0,0,28.367-46.971q0-25.623-20.895-40.568T281.618,20.858l-64.46-.137V20.7h-48.8V136.521q0,29.113-12.2,42.76t-35.382,13.65q-47.58,0-47.581-56.41V20.7H23.779V138.324q0,46.212,25.47,71.11T120.47,234.34q34.032,0,56.835-13.788a78.725,78.725,0,0,0,14.385-11.118q25.461-24.9,25.468-71.11V58.07h58.361q18.3,0,27.754,6.255t9.457,18.757q0,12.51-9.457,18.91T275.519,108.4H227.385v29.926q0,3.073-.11,6.066h56.783q39.349,0,39.346,26.538,0,13.424-9.911,19.825t-29.435,6.4H226.411V156.035c-2.869,25.211-12.1,45.585-27.569,60.711a89.257,89.257,0,0,1-16.251,12.56c-1.715,1.037-3.485,2.008-5.286,2.939v2.123H287.719q41.785,0,63.593-15.1t21.811-43.158q0-19.825-10.371-33.4" fill="#003047"/>
    <path id="Path_592" data-name="Path 592" d="M591.458,21.865H535.387L492.046,78.936l28.036,36.917Z" fill="#d6112d"/>
    <path id="Path_593" data-name="Path 593" d="M444.5,141.545l-71.376,93.987h56.071l43.341-57.07,9.756-12.847,53.1,69.917h56.071L510.326,128.7,482.291,91.782l-53.1-69.917H373.123L454.255,128.7Z" fill="#003047"/>
    <line id="Line_143" data-name="Line 143" x2="889.08" transform="translate(634.253 234.478)" fill="none" stroke="#c31e24" stroke-miterlimit="10" stroke-width="1"/>
  </g>
</svg>
